<?xml version="1.0" encoding="utf-8"?>
<!-- Generator: Adobe Illustrator 25.4.1, SVG Export Plug-In . SVG Version: 6.00 Build 0)  -->
<svg version="1.1" id="Layer_1" xmlns="http://www.w3.org/2000/svg" xmlns:xlink="http://www.w3.org/1999/xlink" x="0px" y="0px"
	 viewBox="0 0 64 64" style="enable-background:new 0 0 64 64;" xml:space="preserve">
<style type="text/css">
	.st0{fill:none;stroke:#231F20;stroke-width:2;stroke-linecap:round;stroke-linejoin:round;stroke-miterlimit:10;}
</style>
<g>
	<path class="st0" d="M29.37,25.53c0,0,14.09-20.62,30.06-20.62c0,0,4.08,12.25-20.72,29.96L29.37,25.53z"/>
	<path class="st0" d="M59.44,4.92l-13.6-0.37c-1.4-0.04-2.61,0.97-2.83,2.36l-0.79,5.06"/>
	<path class="st0" d="M59.5,4.98l0.37,13.65c0.04,1.38-0.94,2.58-2.3,2.82l-4.79,0.85"/>
	<path class="st0" d="M25.49,34.67c-1.12,1.12-2.94,1.12-4.06,0c-1.12-1.12-1.12-2.94,0-4.06c1.12-1.12,2.94-1.12,4.06,0
		C26.61,31.73,26.61,33.55,25.49,34.67z"/>
	<circle class="st0" cx="32.21" cy="41.39" r="2.87"/>
	<path class="st0" d="M29.37,25.53c0,0-4.91-0.74-6.54,4.31"/>
	<path class="st0" d="M38.72,34.88c0,0,0.68,4.11-3.65,6.68"/>
	<path class="st0" d="M20.79,33.69c0,0-3.45-0.97-5.14,2.7c-1.68,3.68-2.3,5.21-6.78,5.86c-4.48,0.65-4.74,5.37-4.74,5.37"/>
	<path class="st0" d="M21.72,38.44c0,0-2.6-0.27-3.54,3.54c-0.94,3.81-4.5,1.93-5.63,4.71"/>
	<path class="st0" d="M25.95,40.18c0,0,0.82,3.54-2.26,4.4c-3.08,0.86-2.93,2.89-3.43,5.03c-1.13,4.84-5.55,3.45-5.49,3.62"/>
	<path class="st0" d="M31.16,44.06c0,0,0.48,3.5-3.12,4.34c-3.6,0.84-3.89,3.1-4.52,5.74c-1.19,4.98-7.19,5.31-7.19,5.31"/>
</g>
</svg>
