<?xml version="1.0" encoding="utf-8"?>
<!-- Generator: Adobe Illustrator 25.4.1, SVG Export Plug-In . SVG Version: 6.00 Build 0)  -->
<svg version="1.1" id="Layer_1" xmlns="http://www.w3.org/2000/svg" xmlns:xlink="http://www.w3.org/1999/xlink" x="0px" y="0px"
	 viewBox="0 0 64 64" style="enable-background:new 0 0 64 64;" xml:space="preserve">
<style type="text/css">
	.st0{fill:none;stroke:#231F20;stroke-width:2;stroke-linecap:round;stroke-linejoin:round;stroke-miterlimit:10;}
</style>
<g>
	<path class="st0" d="M10.46,20.04h34.25c8.63,0,15.62,6.99,15.62,15.62v4.99c0,8.48-6.68,15.15-14.73,15.6
		c-1.99,0.11-3.98-0.39-5.72-1.35l-13.69-9.21c0.5-1.39,3.3-5.28,14.09,3.04c4.75,3.67,10.5-0.27,9.46-9.4
		c-0.86-7.57-17.42-7.14-17.42-7.14S9.46,32.44,10.46,20.04z"/>
	<path class="st0" d="M35.38,20.04c0,0,3.18,6.3-0.29,12.21"/>
	<path class="st0" d="M46.47,34.91c0,0,6.25-5.07,5.43-13.13"/>
	<path class="st0" d="M49.88,41.61c0,0,7.67-0.63,10.45-5.96"/>
	<path class="st0" d="M47.84,48.06c0,0,4.5,4.24,8.55,2.95"/>
	<path class="st0" d="M42.8,49.96c0,0-0.56,3.83,4.06,6.16"/>
	<line class="st0" x1="16.24" y1="22.79" x2="17.54" y2="22.79"/>
	<path class="st0" d="M10.46,20.04c0,0-7.05-3.78-2.64-8.7c4.41-4.93,25.76,9.75,36.02,3.28"/>
	<path class="st0" d="M10.46,21.55c-0.01-0.12-3.51,1.28-6.12-2.68c-2.62-3.95,2.8-5.79,11.08-3.71
		c10.47,2.63,19.67,1.91,21.96-7.43"/>
</g>
</svg>
