<?xml version="1.0" encoding="utf-8"?>
<!-- Generator: Adobe Illustrator 25.4.1, SVG Export Plug-In . SVG Version: 6.00 Build 0)  -->
<svg version="1.1" id="Layer_1" xmlns="http://www.w3.org/2000/svg" xmlns:xlink="http://www.w3.org/1999/xlink" x="0px" y="0px"
	 viewBox="0 0 64 64" style="enable-background:new 0 0 64 64;" xml:space="preserve">
<style type="text/css">
	.st0{fill:none;stroke:#231F20;stroke-width:2;stroke-linecap:round;stroke-linejoin:round;stroke-miterlimit:10;}
</style>
<g>
	<polygon class="st0" points="7.86,56.72 53.32,56.72 60.97,46.37 39.15,46.37 35.66,49.85 3.03,49.85 	"/>
	<line class="st0" x1="27.56" y1="49.85" x2="27.56" y2="3.76"/>
	<path class="st0" d="M27.56,5.86c0,0,28.24,10.91,28.92,40.51c0,0-16.6-12.34-28.92,3.49C27.56,49.85,37.72,30.01,27.56,5.86z"/>
	<path class="st0" d="M27.56,5.86c0,0-7.73,22-22.5,44c0,0,10.66-9.86,22.5,0C27.56,49.85,19.43,28.35,27.56,5.86z"/>
	<line class="st0" x1="10.56" y1="60.24" x2="41.77" y2="60.24"/>
	<line class="st0" x1="45.26" y1="60.24" x2="50.02" y2="60.24"/>
	<line class="st0" x1="35.66" y1="49.85" x2="58.4" y2="49.85"/>
</g>
</svg>
