<?xml version="1.0" encoding="utf-8"?>
<!-- Generator: Adobe Illustrator 25.4.1, SVG Export Plug-In . SVG Version: 6.00 Build 0)  -->
<svg version="1.1" id="Layer_1" xmlns="http://www.w3.org/2000/svg" xmlns:xlink="http://www.w3.org/1999/xlink" x="0px" y="0px"
	 viewBox="0 0 64 64" style="enable-background:new 0 0 64 64;" xml:space="preserve">
<style type="text/css">
	.st0{fill:none;stroke:#231F20;stroke-width:2;stroke-linecap:round;stroke-linejoin:round;stroke-miterlimit:10;}
</style>
<g>
	<path class="st0" d="M19.23,57.28C18.27,42.84,5.61,30.16,5.61,30.16l10.05-4.91l16.33-7.97v40.33"/>
	<path class="st0" d="M40.69,12.62H23.3l1.94-4.07c0.77-1.62,2.4-2.65,4.19-2.65h5.14c1.79,0,3.41,1.03,4.18,2.64L40.69,12.62z"/>
	<path class="st0" d="M45.07,54.71c2.13-13.35,13.32-24.55,13.32-24.55l-26.4-12.87"/>
	<path class="st0" d="M15.65,25.26v-8.91c0-2.06,1.67-3.73,3.73-3.73h25.23c2.06,0,3.73,1.67,3.73,3.73v8.91"/>
	<path class="st0" d="M56.47,58.08c-5.91,0.27-5.15-3.63-11.4-3.37c-2.38,0.3-5.36,1.64-9.92,2.9c-2.35,0.66-4.06,0.5-5.38,0
		c-3.79-1.43-4.42-5.69-7.52-2.42c-0.92,0.98-1.97,1.64-3.02,2.08c-3.71,1.57-7.63,0.33-7.63,0.33"/>
	<path class="st0" d="M22.98,15.62h-2.87c-0.72,0-1.31,0.59-1.31,1.31v2.46"/>
	<line class="st0" x1="10.8" y1="27.63" x2="10.8" y2="23.03"/>
	<line class="st0" x1="53.2" y1="27.63" x2="53.2" y2="23.03"/>
	<polyline class="st0" points="8.24,33.13 32,21.57 55.76,33.13 	"/>
</g>
</svg>
