<?xml version="1.0" encoding="utf-8"?>
<!-- Generator: Adobe Illustrator 25.4.1, SVG Export Plug-In . SVG Version: 6.00 Build 0)  -->
<svg version="1.1" id="Layer_1" xmlns="http://www.w3.org/2000/svg" xmlns:xlink="http://www.w3.org/1999/xlink" x="0px" y="0px"
	 viewBox="0 0 64 64" style="enable-background:new 0 0 64 64;" xml:space="preserve">
<style type="text/css">
	.st0{fill:none;stroke:#231F20;stroke-width:2;stroke-linecap:round;stroke-linejoin:round;stroke-miterlimit:10;}
</style>
<g>
	<path class="st0" d="M6.84,43.09c-1.5-3.38-2.33-7.15-2.33-11.09s0.83-7.7,2.33-11.08"/>
	<path class="st0" d="M57.16,20.93c1.5,3.38,2.33,7.14,2.33,11.07c0,3.96-0.83,7.73-2.36,11.13"/>
	<path class="st0" d="M16.72,54.85c4.37,2.93,9.62,4.63,15.28,4.63c5.64,0,10.89-1.69,15.24-4.61"/>
	<path class="st0" d="M16.72,9.15C21.09,6.22,26.34,4.52,32,4.52c5.65,0,10.92,1.72,15.29,4.64"/>
	<circle class="st0" cx="32" cy="32" r="17.05"/>
	<path class="st0" d="M23.56,17.2c-3.51,1.99-6.23,5.19-7.6,9.05c-2.21-4.25-5.9-3.96-9.11-5.33C0,18.01,12.29,8.83,12.29,8.83
		s1.92-0.74,4.44,0.32C18.84,10.04,21.39,12.21,23.56,17.2z"/>
	<path class="st0" d="M40.46,17.2c3.51,1.99,6.23,5.19,7.6,9.05c2.21-4.25,5.9-3.96,9.11-5.33c6.84-2.9-5.44-12.09-5.44-12.09
		s-1.92-0.74-4.44,0.32C45.18,10.04,42.63,12.21,40.46,17.2z"/>
	<path class="st0" d="M40.41,46.83c3.51-1.99,6.23-5.19,7.6-9.05c2.21,4.25,5.9,3.96,9.11,5.33c6.84,2.9-5.44,12.09-5.44,12.09
		s-1.92,0.74-4.44-0.32C45.13,53.99,42.58,51.82,40.41,46.83z"/>
	<path class="st0" d="M23.51,46.83c-3.51-1.99-6.18-5.19-7.55-9.05c-2.21,4.25-5.95,3.96-9.17,5.33c-6.84,2.9,5.44,12.09,5.44,12.09
		s1.92,0.74,4.44-0.32C18.79,53.99,21.34,51.82,23.51,46.83z"/>
	<path class="st0" d="M28.86,19.14c0,0,9.26-3.26,14.67,6.78"/>
	<path class="st0" d="M45.1,30.49c0,0,0.46,2.67-0.39,5.02"/>
</g>
</svg>
