<?xml version="1.0" encoding="utf-8"?>
<!-- Generator: Adobe Illustrator 25.4.1, SVG Export Plug-In . SVG Version: 6.00 Build 0)  -->
<svg version="1.1" id="Layer_1" xmlns="http://www.w3.org/2000/svg" xmlns:xlink="http://www.w3.org/1999/xlink" x="0px" y="0px"
	 viewBox="0 0 64 64" style="enable-background:new 0 0 64 64;" xml:space="preserve">
<style type="text/css">
	.st0{fill:none;stroke:#231F20;stroke-width:2;stroke-linecap:round;stroke-linejoin:round;stroke-miterlimit:10;}
</style>
<g>
	<path class="st0" d="M42.75,33.53H13.73c-4.87,0-8.82-3.95-8.82-8.82v-5.3c0-4.87,3.95-8.82,8.82-8.82l8.67,1.48
		c3.87,0.66,7.82,0.66,11.69,0l8.67-1.48c4.87,0,8.82,3.95,8.82,8.82v5.3C51.57,29.58,47.62,33.53,42.75,33.53z"/>
	<line class="st0" x1="22.04" y1="18.96" x2="26.05" y2="26.15"/>
	<line class="st0" x1="28.65" y1="18.96" x2="32.66" y2="26.15"/>
	<path class="st0" d="M35.56,33.53H20.92v1.64c0,1.73,1.4,3.13,3.13,3.13h8.38c1.73,0,3.13-1.4,3.13-3.13V33.53z"/>
	<path class="st0" d="M26.59,43.13c0.84,5.17,3.6,12.72,12.42,14.24c22.29,3.85,20.32-21.45,20.32-21.45V6.27h-3.75v29.64
		c0.19,19.63-12.19,19.92-18.83,16.8c-3.9-1.83-5.57-6.15-6.28-9.58"/>
	<line class="st0" x1="24.05" y1="43.13" x2="33.41" y2="43.13"/>
	<path class="st0" d="M4.63,10.14c0,0,3.54-5.12,10.92-3.45C26,9.05,31.91,8.99,39.73,6.76c7.83-2.23,12.13,3.38,12.13,3.38"/>
</g>
</svg>
