<?xml version="1.0" encoding="utf-8"?>
<!-- Generator: Adobe Illustrator 25.4.1, SVG Export Plug-In . SVG Version: 6.00 Build 0)  -->
<svg version="1.1" id="Layer_1" xmlns="http://www.w3.org/2000/svg" xmlns:xlink="http://www.w3.org/1999/xlink" x="0px" y="0px"
	 viewBox="0 0 64 64" style="enable-background:new 0 0 64 64;" xml:space="preserve">
<style type="text/css">
	.st0{fill:none;stroke:#231F20;stroke-width:2;stroke-linecap:round;stroke-linejoin:round;stroke-miterlimit:10;}
</style>
<g>
	<path class="st0" d="M38.14,33.49l-10.9,24.06c-13.14,1.96-13.8-6.25-13.8-6.25l10.9-24.05c0.48-1.06,1.31-1.92,2.36-2.43
		l2.31-1.13c1.05-0.51,1.88-1.37,2.36-2.43L35.1,13l6.66,3.02l-3.73,8.24c-0.48,1.06-0.58,2.25-0.28,3.37l0.67,2.48
		C38.72,31.24,38.62,32.43,38.14,33.49z"/>
	<path class="st0" d="M36.65,13.7l2.21-6.6c0.29-0.8,1.2-1.17,1.97-0.81l2.63,1.24c0.76,0.36,1.06,1.29,0.64,2.02l-3.54,5.91"/>
	
		<ellipse transform="matrix(0.7519 -0.6593 0.6593 0.7519 -15.1531 31.0524)" class="st0" cx="33.68" cy="35.66" rx="1.58" ry="3.4"/>
	<path class="st0" d="M31.44,33.1l-18,18.18c0,0,0.53,3.87,4.9,3.64l17.58-16.72"/>
	<path class="st0" d="M4.76,27.89c1.95,1.66,5.55,3.32,10.69-0.01c8.12-5.25,14.28,6.55,22.4-0.01c7.16-5.78,11.68,2.78,19.69,1.71"
		/>
	<path class="st0" d="M40.24,19.39c6.75-2.84,11.51,6.31,20.72,2.15"/>
	<path class="st0" d="M3.04,18.91c0,0,4.29,7.19,12.41,1.93c5.48-3.54,10.06,0.69,14.96,1.79"/>
	<path class="st0" d="M21.36,52.06c0,0,4.27,0.43,6.82,3.41"/>
	<path class="st0" d="M50.28,43.11c0,2.35-1.91,4.26-4.26,4.26s-4.26-1.91-4.26-4.26c0-2.35,1.91-4.26,4.26-4.26
		S50.28,40.75,50.28,43.11z"/>
	<path class="st0" d="M11.34,36.97c-0.85-1.16-0.6-2.8,0.56-3.65c1.16-0.85,2.8-0.6,3.65,0.56c0.85,1.16,0.6,2.8-0.56,3.65
		C13.82,38.38,12.19,38.13,11.34,36.97z"/>
	<line class="st0" x1="8.03" y1="46.49" x2="9.01" y2="46.78"/>
	<line class="st0" x1="43.1" y1="32.33" x2="43.59" y2="31.78"/>
</g>
</svg>
