<?xml version="1.0" encoding="utf-8"?>
<!-- Generator: Adobe Illustrator 25.4.1, SVG Export Plug-In . SVG Version: 6.00 Build 0)  -->
<svg version="1.1" id="Layer_1" xmlns="http://www.w3.org/2000/svg" xmlns:xlink="http://www.w3.org/1999/xlink" x="0px" y="0px"
	 viewBox="0 0 64 64" style="enable-background:new 0 0 64 64;" xml:space="preserve">
<style type="text/css">
	.st0{fill:none;stroke:#231F20;stroke-width:2;stroke-linecap:round;stroke-linejoin:round;stroke-miterlimit:10;}
</style>
<g>
	<path class="st0" d="M16.59,15.35c0,0-3.72-1.21-7.3,2.87c-3.58,4.08-2.57,8.02-2.57,8.02L19.86,36.5"/>
	<path class="st0" d="M32,34.41V11.94c0,0-3.94-4.26-9.79-1.9c-5.41,2.18-5.62,5.31-5.62,5.31l8.68,19.07"/>
	<path class="st0" d="M6.72,26.24c0,0-4.27,3.36-3.31,8.37c0.48,2.5,2.26,4.56,4.57,5.63L32,51.44"/>
	<path class="st0" d="M32,51.44h-8.64c-2.2,0-4.88-1.33-5.73-3.36l-2.14-4.34"/>
	<path class="st0" d="M30.96,51.44h9.68c2.76-0.14,3.44-1.43,5.03-3.36l2.84-4.34"/>
	<path class="st0" d="M47.41,15.35c0,0,3.72-1.21,7.3,2.87c3.58,4.08,2.57,8.02,2.57,8.02l-13.36,11.3"/>
	<path class="st0" d="M32,11.94c0,0,3.94-4.26,9.79-1.9c5.41,2.18,5.62,5.31,5.62,5.31l-8.97,19.85"/>
	<path class="st0" d="M57.28,26.24c0,0,4.27,3.36,3.31,8.37c-0.48,2.5-2.26,4.56-4.57,5.63L32,51.44"/>
	<line class="st0" x1="25.56" y1="54.67" x2="38.44" y2="54.67"/>
</g>
</svg>
