<?xml version="1.0" encoding="utf-8"?>
<!-- Generator: Adobe Illustrator 25.4.1, SVG Export Plug-In . SVG Version: 6.00 Build 0)  -->
<svg version="1.1" id="Layer_1" xmlns="http://www.w3.org/2000/svg" xmlns:xlink="http://www.w3.org/1999/xlink" x="0px" y="0px"
	 viewBox="0 0 64 64" style="enable-background:new 0 0 64 64;" xml:space="preserve">
<style type="text/css">
	.st0{fill:none;stroke:#231F20;stroke-width:2;stroke-linecap:round;stroke-linejoin:round;stroke-miterlimit:10;}
</style>
<g>
	<g>
		<path class="st0" d="M18.96,42.82c3.8-17.52,12.01-26.25,27.76-29.12c0,0-8.28,14.25-0.94,27.98"/>
	</g>
	<path class="st0" d="M43.52,35.83c7.37-0.19,8.3,5.03,16.5,1.9"/>
	<path class="st0" d="M3.97,35.62c0,0,4.85,5.88,16.56,1.23"/>
	<path class="st0" d="M19.73,42.56c5.94-2.22,9.97,3.66,18.91-0.08"/>
	<path class="st0" d="M4.72,42.08c2.97,2.15,9.6,2.5,15.01,0.47c5.94-2.22,9.97,3.66,18.91-0.08c8.95-3.74,10.21,3.47,20.34,1.66"/>
	<path class="st0" d="M7.69,48.7c0,0,6.27,2.82,14.67-0.32c4.73-1.77,7.94,2.91,15.06-0.06c8.17-3.42,13.26,4.06,18.06,1.39"/>
</g>
</svg>
