<?xml version="1.0" encoding="utf-8"?>
<!-- Generator: Adobe Illustrator 25.4.1, SVG Export Plug-In . SVG Version: 6.00 Build 0)  -->
<svg version="1.1" id="Layer_1" xmlns="http://www.w3.org/2000/svg" xmlns:xlink="http://www.w3.org/1999/xlink" x="0px" y="0px"
	 viewBox="0 0 64 64" style="enable-background:new 0 0 64 64;" xml:space="preserve">
<style type="text/css">
	.st0{fill:none;stroke:#231F20;stroke-width:2;stroke-linecap:round;stroke-linejoin:round;stroke-miterlimit:10;}
</style>
<g>
	<path class="st0" d="M4.03,16.8c0,0,0.01,0,0.02,0.01c0.3,0.22,3.7,2.7,2.8,6.2c-0.95,3.67,2.92,5.34,2.92,5.34
		c-0.47,2.99-0.14,6.09-0.14,6.09c0.2,2.1,0.62,4,1.24,5.7c0.01,0.01,0.01,0.02,0.02,0.03c2.75,7.61,9.33,11.34,16.98,12.57"/>
	<path class="st0" d="M35.51,53.22c0.21,0,0.41-0.01,0.61-0.02c7.53-0.31,15.89-1.81,19.46-5.21c7.59-7.22,5.38-23.38-7.09-24.17
		c-12.19-0.77-15.43,5.54-23.84,10.04c-7.86,4.21-10.17-1.12-10.17-1.12c-1.04-2.29-0.67-3.9-0.67-3.9s5.32-1.93,4.99-5.08
		c-0.32-3.15,3.02-3.81,3.02-3.81c-8.48-1.69-9.42,4.8-9.42,4.8C13,18.5,4.56,16.9,4.05,16.81"/>
	<path class="st0" d="M10.88,40.14c3.82,7.32,11.11,6.18,15.34,9.55s-0.92,9.07-0.92,9.07s7.62,1.25,9.48-3.72
		c2.28-6.08,4.64-7.03,4.64-7.03s8.69-6.81,17.69-1.76"/>
	<circle class="st0" cx="50.73" cy="32.58" r="2.21"/>
	<path class="st0" d="M44.75,20.96c0,0-1.03-4.41,4.94-11.07"/>
	<path class="st0" d="M43.44,13.29c0,0-0.61-2.72,2.92-6.39"/>
	<path class="st0" d="M32.65,10.78c0,0,8.55,2.51,9.17,10.46"/>
	<path class="st0" d="M36.78,6.36c0,0,2.41,0.75,3.28,4.01"/>
	<line class="st0" x1="41.82" y1="5.1" x2="41.82" y2="6.36"/>
</g>
</svg>
