<?xml version="1.0" encoding="utf-8"?>
<!-- Generator: Adobe Illustrator 25.4.1, SVG Export Plug-In . SVG Version: 6.00 Build 0)  -->
<svg version="1.1" id="Layer_1" xmlns="http://www.w3.org/2000/svg" xmlns:xlink="http://www.w3.org/1999/xlink" x="0px" y="0px"
	 viewBox="0 0 64 64" style="enable-background:new 0 0 64 64;" xml:space="preserve">
<style type="text/css">
	.st0{fill:none;stroke:#231F20;stroke-width:2;stroke-linecap:round;stroke-linejoin:round;stroke-miterlimit:10;}
</style>
<g>
	<path class="st0" d="M39.14,6.28c5.66,2.19,10.03,7.02,11.56,12.98"/>
	<path class="st0" d="M13.89,19.09c1.57-5.87,5.89-10.64,11.5-12.81"/>
	<path class="st0" d="M50.51,29.49c-2.34,7.84-9.63,13.57-18.23,13.57c-8.54,0-15.76-5.62-18.17-13.37c0,0,0,0,0-0.01"/>
	<path class="st0" d="M15.03,24.57c0,2.1-0.36,3.95-0.92,5.1c0,0.01,0,0.01,0,0.01c-0.37,0.77-0.82,1.22-1.32,1.22
		c-1.23,0-2.23-2.83-2.23-6.34c0-3.5,1-6.35,2.23-6.35c0.41,0,0.8,0.31,1.11,0.86C14.58,20.18,15.03,22.23,15.03,24.57z"/>
	<path class="st0" d="M54.16,24.57c0,2.1-0.36,3.95-0.92,5.1c0,0.01,0,0.01,0,0.01c-0.37,0.77-0.82,1.22-1.32,1.22
		c-0.54,0-1.02-0.54-1.41-1.42c-0.5-1.16-0.82-2.93-0.82-4.91c0-2.22,0.4-4.18,1.02-5.31c0.34-0.66,0.75-1.04,1.21-1.04
		c0.41,0,0.8,0.31,1.11,0.86C53.71,20.18,54.16,22.23,54.16,24.57z"/>
	
		<ellipse transform="matrix(0.7071 -0.7071 0.7071 0.7071 -7.5346 29.8527)" class="st0" cx="32.27" cy="24.02" rx="10.25" ry="10.25"/>
	<polyline class="st0" points="28.97,33.72 28.97,27.98 28.97,21.16 28.97,14.32 	"/>
	<polyline class="st0" points="35.8,33.64 35.8,27.98 35.8,21.16 35.8,14.4 	"/>
	<polyline class="st0" points="22.43,21.16 28.97,21.16 35.8,21.16 42.1,21.16 	"/>
	<polyline class="st0" points="22.82,27.98 28.97,27.98 35.8,27.98 41.71,27.98 	"/>
	<path class="st0" d="M40.4,4.99c0,0.47-0.46,0.91-1.26,1.28c-1.43,0.67-3.98,1.12-6.88,1.12c-2.89,0-5.44-0.45-6.87-1.12
		c-0.8-0.37-1.26-0.81-1.26-1.28c0-1.33,3.64-2.41,8.13-2.41C36.76,2.59,40.4,3.66,40.4,4.99z"/>
	<line class="st0" x1="18.75" y1="23.35" x2="18.75" y2="25.95"/>
	<line class="st0" x1="46.1" y1="23.35" x2="46.1" y2="25.95"/>
	<path class="st0" d="M41.71,40.55l2.11,4.95l0,0c-3.19,1.61-7.07,2.56-11.25,2.56c-4.64,0-8.9-1.16-12.28-3.12v0l1.73-4.88"/>
	<path class="st0" d="M20.29,44.94L9.96,48.72c-1.16,0.43-1.66,1.8-1.02,2.86c2.06,3.44,8.04,9.83,23.98,9.83
		c13.89,0,19.84-5.83,22.08-9.09c0.72-1.05,0.24-2.49-0.94-2.94L43.82,45.5"/>
	<path class="st0" d="M10.83,48.4c0,0,5.33,9.92,21.53,9.67c17.33-0.26,20.89-9,20.89-9"/>
	<line class="st0" x1="19.24" y1="49.79" x2="20.04" y2="50.21"/>
	<line class="st0" x1="43.82" y1="50.47" x2="43.02" y2="50.8"/>
	<line class="st0" x1="24.54" y1="52.14" x2="25.44" y2="52.43"/>
	<line class="st0" x1="37.87" y1="52.5" x2="38.45" y2="52.36"/>
	<line class="st0" x1="31.33" y1="53.18" x2="32.19" y2="53.18"/>
</g>
</svg>
