<?xml version="1.0" encoding="utf-8"?>
<!-- Generator: Adobe Illustrator 25.4.1, SVG Export Plug-In . SVG Version: 6.00 Build 0)  -->
<svg version="1.1" id="Layer_1" xmlns="http://www.w3.org/2000/svg" xmlns:xlink="http://www.w3.org/1999/xlink" x="0px" y="0px"
	 viewBox="0 0 64 64" style="enable-background:new 0 0 64 64;" xml:space="preserve">
<style type="text/css">
	.st0{fill:none;stroke:#231F20;stroke-width:2;stroke-linecap:round;stroke-linejoin:round;stroke-miterlimit:10;}
</style>
<g>
	<path class="st0" d="M37.36,32.78c0.8,6.07,0.93,10.93-5.37,10.83c-5.96-0.1-6.06-4.66-5.37-10.83c0.67-5.94,1.85-10.83,5.37-10.83
		C35.51,21.96,36.58,26.86,37.36,32.78z"/>
	<path class="st0" d="M35.14,43.07c0.51,0.51,0.81,1.16,0.81,1.86c0,1.66-1.72,3.01-3.84,3.01c-2.12,0-3.84-1.35-3.84-3.01
		c0-0.7,0.31-1.35,0.81-1.86"/>
	<path class="st0" d="M35.36,46.53c0.38,0.46,0.6,1.02,0.6,1.6c0,1.66-1.72,3.01-3.84,3.01c-2.12,0-3.84-1.35-3.84-3.01
		c0-0.59,0.22-1.14,0.6-1.6"/>
	<path class="st0" d="M35.44,49.64c0.33,0.44,0.52,0.95,0.52,1.51c0,1.66-1.72,3.01-3.84,3.01c-2.12,0-3.84-1.35-3.84-3.01
		c0-0.55,0.18-1.07,0.52-1.51"/>
	<path class="st0" d="M34.6,53.44c0,0,3.19,4.12,2.05,6.32c-1.01,1.95-2.13,1-3.05-1.32"/>
	<path class="st0" d="M29.63,53.44c0,0-3.19,4.12-2.05,6.32c0.97,1.86,2.3,0.85,3.19-1.26"/>
	<path class="st0" d="M29.61,60.34c0,0,0.36,1.46,2.51,1.5c2.15,0.04,2.51-1.53,2.51-1.53"/>
	<path class="st0" d="M31.99,21.96c0,0,0.25-8.4-5.66-10.38"/>
	<path class="st0" d="M31.99,21.96c0,0-0.73-6.71,6.51-10.38"/>
	<path class="st0" d="M12.99,19.1c0,0,0.94,9.05,13.95,11.27"/>
	<path class="st0" d="M15.13,13.83c3.58-0.15,4.86-4.28,4.86-4.28c0.84,3.65-0.08,9.28-4.64,9.67c-4.57,0.38-8.22-2.51-7.91-8.98
		c0.3-6.47,5.18-8.07,5.18-8.07s-2.36,4.6,0.23,7.76c3.47,4.23,2.91,6.84,1.48,9.32"/>
	<path class="st0" d="M16.65,18.93c0,0,2.03,1.57,2.81,4.92c0,0,5.28,1.29,8.1,3.39"/>
	<path class="st0" d="M19.46,23.85c0,0-0.14,2.41-0.79,3.62"/>
	<path class="st0" d="M51.01,19.1c0,0-0.98,9.05-14,11.27"/>
	<path class="st0" d="M48.87,13.83c-3.58-0.15-4.86-4.28-4.86-4.28c-0.84,3.65,0.08,9.28,4.64,9.67c4.57,0.38,8.22-2.51,7.92-8.98
		c-0.3-6.47-5.18-8.07-5.18-8.07s2.36,4.6-0.23,7.76c-3.47,4.23-2.91,6.84-1.48,9.32"/>
	<path class="st0" d="M47.35,18.93c0,0-2.03,1.57-2.81,4.92c0,0-5.32,1.37-8.14,3.46"/>
	<path class="st0" d="M44.54,23.85c0,0,0.06,2.25,0.71,3.46"/>
	<polyline class="st0" points="26.69,31.77 21.07,33.37 15.15,31.66 11.29,28.82 	"/>
	<polyline class="st0" points="26.4,35.28 20.73,37.63 15.64,37.04 11.29,34.55 	"/>
	<polyline class="st0" points="26.4,38.41 22.34,40.07 18.99,43.07 17.79,47.65 	"/>
	<polyline class="st0" points="27.56,41.85 23.52,44.57 23.47,48.56 	"/>
	<polyline class="st0" points="37.22,31.77 43.16,33.37 49.08,31.66 52.94,28.82 	"/>
	<polyline class="st0" points="37.63,35.2 43.5,37.63 48.59,37.04 52.94,34.55 	"/>
	<polyline class="st0" points="37.72,38.36 41.89,40.07 45.24,43.07 46.43,47.65 	"/>
	<polyline class="st0" points="36.67,41.85 40.71,44.57 40.76,48.56 	"/>
	<line class="st0" x1="30.07" y1="27.06" x2="29.94" y2="27.82"/>
	<line class="st0" x1="33.85" y1="27.05" x2="34.05" y2="27.82"/>
</g>
</svg>
