<?xml version="1.0" encoding="utf-8"?>
<!-- Generator: Adobe Illustrator 25.4.1, SVG Export Plug-In . SVG Version: 6.00 Build 0)  -->
<svg version="1.1" id="Layer_1" xmlns="http://www.w3.org/2000/svg" xmlns:xlink="http://www.w3.org/1999/xlink" x="0px" y="0px"
	 viewBox="0 0 64 64" style="enable-background:new 0 0 64 64;" xml:space="preserve">
<style type="text/css">
	.st0{fill:none;stroke:#231F20;stroke-width:2;stroke-linecap:round;stroke-linejoin:round;stroke-miterlimit:10;}
</style>
<g>
	<path class="st0" d="M22.44,56.45c0,0,6.13,0.45,5.41-5.68c-0.57-4.86-6.63-6.53-10.39-3.91c-3.9,2.71-3.69,9.49,2.03,12.47
		c5.98,3.12,15.11,2.2,19.29-4.76c5.52-9.21,2.1-13.73-0.16-21.64c-3.09-10.86,1.58-11.7,1.8-17.89c0.22-6.19-5.18-10.13-13.37-6.02
		l-5.37,2.85l-6.85,0.53c-0.6,0.05-1.08,0.52-1.14,1.12l-0.04,0.45c-0.07,0.71,0.47,1.34,1.19,1.37l6.46,0.28
		c0,0,3.75,2.8,7.89,1.51l1.51,1.47c0,0-10.08,3.76-9.45,13.81c0.55,8.77,10.04,12.53,10.04,12.53s3.52,1.37,2.5,4.49
		c0,0-1.97,8.5-10.07,7.26c-7.69-1.17-5.09-7.56-2.14-7.33c3.53,0.27,2.98,4.32,0.44,3.88"/>
	<path class="st0" d="M40.71,39.48c0.02,0.06,4.08-1.13,6.77-1.92c1.22-0.36,2.46,0.46,2.62,1.73l0.26,2.19l-8.81,1.4"/>
	<polyline class="st0" points="50.36,41.48 50.36,46 41.76,45.54 	"/>
	<path class="st0" d="M50.36,46l-1.33,3.73c-0.35,0.99-1.5,1.45-2.44,0.97l-5.18-2.32"/>
	<path class="st0" d="M30.34,7.76c0,0,0-4.8,4.29-4.8C38,2.97,37.37,6.1,40.28,6.24c3.87,0.18,5.25,2.08,4.44,4.93
		c-0.63,2.24-3.1,4.08-0.87,6.14c2.23,2.06,2.07,4.34-0.6,5.63c-2.67,1.29-2.98,3.65-0.3,7.61c2.45,3.63-3.72,4.5-2.79,7.16"/>
	<path class="st0" d="M25.85,26.57c0,0-3.42,5.67,0.59,10.52"/>
</g>
</svg>
