<?xml version="1.0" encoding="utf-8"?>
<!-- Generator: Adobe Illustrator 25.4.1, SVG Export Plug-In . SVG Version: 6.00 Build 0)  -->
<svg version="1.1" id="Layer_1" xmlns="http://www.w3.org/2000/svg" xmlns:xlink="http://www.w3.org/1999/xlink" x="0px" y="0px"
	 viewBox="0 0 64 64" style="enable-background:new 0 0 64 64;" xml:space="preserve">
<style type="text/css">
	.st0{fill:none;stroke:#231F20;stroke-width:2;stroke-linecap:round;stroke-linejoin:round;stroke-miterlimit:10;}
</style>
<g>
	<path class="st0" d="M25.97,56.33c0,0-2.31-6.65,3.47-8.12c5.77-1.47,7.24-8.32,10.57-6.85s6.85,8.97,5.58,15.04"/>
	<line class="st0" x1="25.55" y1="54.29" x2="25.55" y2="54.28"/>
	<path class="st0" d="M24.18,51.6c-0.71-1.63-1.34-3.62-0.97-4.95c0.17-0.61,0.54-1.07,1.19-1.32c0.6-0.23,1.11-0.47,1.57-0.72
		c1.1-0.58,1.89-1.23,2.82-1.89c0,0,0-0.01,0.01-0.02c0.78-0.56,1.65-1.13,2.89-1.71c0.26-0.12,0.53-0.24,0.83-0.36
		c0.55-0.22,1.08-0.38,1.58-0.48c1.24-0.24,2.31-0.14,3.15,0.08c1.2,0.31,1.93,0.85,2.05,0.94h0.01c0.01,0.01,0.01,0.01,0.01,0.01"
		/>
	<path class="st0" d="M43.09,44.08c0,0,0.63-4.43,5.52-5.8c4.89-1.37,6.16,0.72,6.41,2.9c0.24,2.18-1.13,6.18-0.34,8.35
		c1.57,4.32-0.49,6.8-0.49,6.8"/>
	<path class="st0" d="M44.85,47.22c0,0,2.65,1.87,3.83-1.17c1.17-3.03,2.51-4.37,4.08-4.27c1.57,0.1,2,2.71,2,2.71"/>
	<path class="st0" d="M9.41,51.07c0,0,0.92-1.22,2.82-2.82c1.91-1.6,8.02-3.44,9.62,0c1.6,3.44,3.56,3.74,3.69,5.95
		c0.13,2.21-6.52,7.25-9.87,4.5C12.32,55.96,6.89,55.42,9.41,51.07z"/>
	<path class="st0" d="M18.39,52.8c0,0.78-0.64,1.42-1.42,1.42s-2.17-1.11-2.17-1.89c0-0.78,1.01-1.6,1.79-1.6
		S18.39,52.02,18.39,52.8z"/>
	<path class="st0" d="M13.85,47.29c-1.54-0.94-2.45-2-1.25-4.07c0,0,0.79-1.04,2.42-2.41c1.63-1.37,6.85-2.93,8.22,0
		c0.98,2.12,2.13,2.85,2.73,3.8"/>
	<path class="st0" d="M18.62,46.31c-0.01,0-0.08-2.56,1.66-2.35c2.38,0.29,2.93,2.68,2.93,2.68"/>
	<path class="st0" d="M15.02,40.81c0,0-3.69-2.82-6.26-0.52c-2.56,2.3-5.99,4.79-3.44,7.24c2.54,2.45,4.25,1.82,4.67,2.87"/>
	<path class="st0" d="M12.13,44.32c0,0-2.14-1.17-2.4,1.38c-0.26,2.54,2.17,2.84,2.17,2.84"/>
	<path class="st0" d="M28.79,42.71c0,0,0.88-1.94-1.08-4.87c-1.96-2.94,0.31-5.35-1.74-8.55c-2.04-3.2-5.44-4.3-7.59-6.78
		c-2.15-2.48-0.75-7.63,5.3-4.24s8.86,6.52,7.22,12.07c-1.63,5.54,1.38,6.69,0.78,10.65"/>
	<path class="st0" d="M34.11,40.15c0.13-0.03-1.44-5.57,0.97-8.7c2.41-3.13,1.25-7.96-0.68-10.24c-1.93-2.28-3.56-2.8-1.74-5.93
		c1.83-3.13-0.94-8.61,1.49-10.17c2.42-1.57,11.1-0.39,7.71,7.3c-3.39,7.7-1.73,4.27-0.26,9.92c2.41,9.25-5.3,9.47-4.35,17.91"/>
	<path class="st0" d="M40.97,41.92c0,0-1.32-5.11,1.67-7.75s4.26-4.84,4.12-8.17c-0.15-3.33-0.93-6.16,2.84-7.09
		c3.77-0.93,5.28,3.13,1.86,7.73c-3.42,4.6,0,6.41-4.43,9c-4.42,2.59-2.78,5.71-2.78,5.71"/>
	<line class="st0" x1="59.57" y1="56.33" x2="24.37" y2="56.4"/>
	<line class="st0" x1="20.06" y1="59.15" x2="37.26" y2="59.15"/>
</g>
</svg>
