<?xml version="1.0" encoding="utf-8"?>
<!-- Generator: Adobe Illustrator 25.4.1, SVG Export Plug-In . SVG Version: 6.00 Build 0)  -->
<svg version="1.1" id="Layer_1" xmlns="http://www.w3.org/2000/svg" xmlns:xlink="http://www.w3.org/1999/xlink" x="0px" y="0px"
	 viewBox="0 0 64 64" style="enable-background:new 0 0 64 64;" xml:space="preserve">
<style type="text/css">
	.st0{fill:none;stroke:#231F20;stroke-width:2;stroke-linecap:round;stroke-linejoin:round;stroke-miterlimit:10;}
</style>
<g>
	<path class="st0" d="M5.06,34.18l1.58-1.85c0,0-1.5-17.89,15.34-16.99c16.84,0.9,22.71,5.11,27.52,16.09l7.19-5.55
		c1.22-0.97,3.03-0.1,3.03,1.46v12.92c0,1.43-1.55,2.33-2.79,1.62l-7.73-5.34c0,0-9.47,13.93-30.08,12.03
		c-8.43-0.78-12.78-7.4-14.49-10.83C4.05,36.57,4.21,35.17,5.06,34.18z"/>
	<path class="st0" d="M11.85,18.08c0,0,2.16-4.59,10.55-6.53c9.33-2.15,18.75-0.87,24.91,5.22s2.18,14.66,2.18,14.66"/>
	<path class="st0" d="M18.93,30.19c0,0,7.05-4.62,9.42-2.09c2.37,2.54,2.31,11.95-8.8,6.71"/>
	<path class="st0" d="M13.69,47.1l7.9,5.98c0.75,0.56,1.81,0.41,2.37-0.34l0.31-4.02c0,0,9.06,2.64,18.31,0.02
		c12.63-3.57,6.62-12.21,6.62-12.21"/>
</g>
</svg>
