<?xml version="1.0" encoding="utf-8"?>
<!-- Generator: Adobe Illustrator 25.4.1, SVG Export Plug-In . SVG Version: 6.00 Build 0)  -->
<svg version="1.1" id="Layer_1" xmlns="http://www.w3.org/2000/svg" xmlns:xlink="http://www.w3.org/1999/xlink" x="0px" y="0px"
	 viewBox="0 0 64 64" style="enable-background:new 0 0 64 64;" xml:space="preserve">
<style type="text/css">
	.st0{fill:none;stroke:#231F20;stroke-width:2;stroke-linecap:round;stroke-linejoin:round;stroke-miterlimit:10;}
</style>
<g>
	<path class="st0" d="M13.12,24.6c0,0-13.79,9.31-1.04,26.14l-3.63,6.59H18.9l-3.09-6.66C15.82,50.67,28.18,33.32,13.12,24.6z"/>
	<path class="st0" d="M6.84,34.88c0,0-6.54,6.52,0.9,8.11"/>
	<path class="st0" d="M18.64,29.7c0,0,5.94,7.48,4.09,15.16c-1.12,4.66-5.12,2.79-5.12,2.79"/>
	<line class="st0" x1="15.03" y1="30.81" x2="15.34" y2="31.76"/>
	<path class="st0" d="M3.9,12.34c0,0,8.42,10.31,24.41,8.84C44.29,19.71,55.25,6.66,55.25,6.66"/>
	<line class="st0" x1="13.12" y1="24.6" x2="13.12" y2="18.85"/>
	<path class="st0" d="M34.55,26.23c0,0-11.61,7.84-0.87,22.01l-3.06,5.55h8.8l-2.6-5.61C36.82,48.18,47.23,33.56,34.55,26.23z"/>
	<path class="st0" d="M29.26,34.88c0,0-5.51,5.49,0.76,6.83"/>
	<path class="st0" d="M39.19,30.51c0,0,5,6.3,3.44,12.76c-0.94,3.93-4.31,2.35-4.31,2.35"/>
	<line class="st0" x1="36.15" y1="31.45" x2="36.42" y2="32.25"/>
	<line class="st0" x1="34.55" y1="26.23" x2="34.55" y2="20.07"/>
	<path class="st0" d="M51.27,18.03c0,0-12.22,8.26-0.92,23.18l-3.22,5.85h9.27l-2.74-5.91C53.66,41.15,64.63,25.76,51.27,18.03z"/>
	<path class="st0" d="M45.7,27.14c0,0-5.8,5.78,0.8,7.19"/>
	<path class="st0" d="M56.16,22.55c0,0,5.26,6.63,3.63,13.44c-0.99,4.14-4.54,2.47-4.54,2.47"/>
	<line class="st0" x1="52.96" y1="23.54" x2="53.24" y2="24.38"/>
	<line class="st0" x1="51.27" y1="18.03" x2="51.27" y2="10.58"/>
	<path class="st0" d="M12.54,37.06l-1.07,3c-0.16,0.44,0.17,0.91,0.64,0.91h3.07c0.46,0,0.79-0.45,0.65-0.9l-0.99-3.01"/>
	<path class="st0" d="M34.34,37.06l-0.85,2.37c-0.13,0.35,0.13,0.72,0.51,0.72h2.43c0.37,0,0.63-0.36,0.51-0.71l-0.79-2.38"/>
	<path class="st0" d="M50.79,28.54l-1.1,3.07c-0.16,0.45,0.17,0.93,0.66,0.93h3.14c0.48,0,0.81-0.47,0.66-0.92l-1.02-3.09"/>
</g>
</svg>
