<?xml version="1.0" encoding="utf-8"?>
<!-- Generator: Adobe Illustrator 25.4.1, SVG Export Plug-In . SVG Version: 6.00 Build 0)  -->
<svg version="1.1" id="Layer_1" xmlns="http://www.w3.org/2000/svg" xmlns:xlink="http://www.w3.org/1999/xlink" x="0px" y="0px"
	 viewBox="0 0 64 64" style="enable-background:new 0 0 64 64;" xml:space="preserve">
<style type="text/css">
	.st0{fill:none;stroke:#231F20;stroke-width:2;stroke-linecap:round;stroke-linejoin:round;stroke-miterlimit:10;}
</style>
<g>
	<path class="st0" d="M33.64,48.22c0,0,7.27,10.04,22.85,6.97c0,0,12.03-46.12-25.23-46.96C-1.12,7.5-0.56,49.6,20.5,51.68
		c14.58,1.44,19.09-9.65,17.66-17.44c0,0-1.15-11.96-12.56-11.96c-9.8,0-13.68,6.89-12.07,14.86c1.83,9,12.46,8.87,16.37,5.93
		c3.91-2.93,4.69-13.96-4.17-13.96c-8.28,0-7.76,9.07-3,9.46c4.76,0.39,4.12-6.03,0.03-5.77c0,0-3.62,0.16-3.19,3.22"/>
	<path class="st0" d="M36.11,45.32c0,0,8.86,8.81,21.19,5.96"/>
</g>
</svg>
