<?xml version="1.0" encoding="utf-8"?>
<!-- Generator: Adobe Illustrator 25.4.1, SVG Export Plug-In . SVG Version: 6.00 Build 0)  -->
<svg version="1.1" id="Layer_1" xmlns="http://www.w3.org/2000/svg" xmlns:xlink="http://www.w3.org/1999/xlink" x="0px" y="0px"
	 viewBox="0 0 64 64" style="enable-background:new 0 0 64 64;" xml:space="preserve">
<style type="text/css">
	.st0{fill:none;stroke:#231F20;stroke-width:2;stroke-linecap:round;stroke-linejoin:round;stroke-miterlimit:10;}
</style>
<g>
	<ellipse class="st0" cx="31.99" cy="35.58" rx="13.02" ry="14.84"/>
	<ellipse class="st0" cx="31.99" cy="35.58" rx="15.97" ry="18.21"/>
	<path class="st0" d="M19.53,24.18c0,0-4.23-4.22-8.49,1.87c-4.26,6.08-1.65,11.21,0,9.03c1.65-2.17,2.99-8.43,6.32-6.82"/>
	<path class="st0" d="M44.47,24.18c0,0,4.23-4.22,8.49,1.87c4.26,6.08,1.65,11.21,0,9.03c-1.65-2.17-2.99-8.43-6.32-6.82"/>
	<path class="st0" d="M18.78,45.82c0.03,0.05-3.67,1.22-2.76,6.08c0.91,4.86,4.9,6.95,5.19,4.29c0.29-2.66-2.01-6.2-0.23-7.41"/>
	<path class="st0" d="M45.19,45.82c-0.03,0.05,3.67,1.22,2.76,6.08c-0.9,4.86-4.9,6.95-5.19,4.29c-0.29-2.66,2.01-6.2,0.23-7.41"/>
	<path class="st0" d="M29.31,53.54c0,0-0.63,1.06,0,3.82c0.18,0.78,0.42,1.46,0.68,2.04c0.51,1.18,2.14,1.34,2.83,0.25
		c0.8-1.27,1.49-3.23,1.02-5.98"/>
	<path class="st0" d="M29.03,17.68c0,0-4.93-3.25-1.31-10.52c3.17-6.35,11.08-3.53,11.43,3.43c0.24,4.71-2.53,7.55-2.53,7.55"/>
	<polyline class="st0" points="23.57,24.26 27.91,30.17 36.07,30.17 40.04,23.93 	"/>
	<polyline class="st0" points="27.91,30.17 25.98,38.14 20.57,42.71 	"/>
	<polyline class="st0" points="36.07,30.17 38,38.68 43.41,42.71 	"/>
	<polyline class="st0" points="25.98,38.14 31.51,42.59 31.99,50.42 	"/>
	<line class="st0" x1="31.51" y1="42.59" x2="38" y2="38.68"/>
	<path class="st0" d="M32.97,6.51c0,0-2.24,0.56-2.77,2.71"/>
</g>
</svg>
