<?xml version="1.0" encoding="utf-8"?>
<!-- Generator: Adobe Illustrator 25.4.1, SVG Export Plug-In . SVG Version: 6.00 Build 0)  -->
<svg version="1.1" id="Layer_1" xmlns="http://www.w3.org/2000/svg" xmlns:xlink="http://www.w3.org/1999/xlink" x="0px" y="0px"
	 viewBox="0 0 64 64" style="enable-background:new 0 0 64 64;" xml:space="preserve">
<style type="text/css">
	.st0{fill:none;stroke:#231F20;stroke-width:2;stroke-linecap:round;stroke-linejoin:round;stroke-miterlimit:10;}
</style>
<g>
	<path class="st0" d="M34.63,7.77l4.58,14.02c0.37,1.13,1.43,1.9,2.62,1.9l14.75,0.02c2.67,0,3.78,3.42,1.62,4.99L46.28,37.4
		c-0.96,0.7-1.37,1.95-1,3.08l4.54,14.03c0.82,2.54-2.08,4.65-4.25,3.09l-11.95-8.65c-0.97-0.7-2.27-0.7-3.24,0L18.43,57.6
		c-2.16,1.57-5.07-0.54-4.25-3.09l4.54-14.03c0.37-1.14-0.04-2.38-1-3.08L5.8,28.71c-2.16-1.57-1.05-4.99,1.62-4.99l14.75-0.02
		c1.19,0,2.25-0.77,2.62-1.9l4.58-14.02C30.2,5.23,33.8,5.23,34.63,7.77z"/>
	<line class="st0" x1="14.66" y1="28.03" x2="14.66" y2="28.62"/>
	<line class="st0" x1="39.4" y1="29.72" x2="39.94" y2="29.95"/>
	<line class="st0" x1="32.33" y1="17.86" x2="32.87" y2="18.09"/>
	<line class="st0" x1="49.76" y1="28.03" x2="49.76" y2="28.62"/>
	<line class="st0" x1="41.88" y1="47.18" x2="41.88" y2="47.77"/>
	<line class="st0" x1="20.84" y1="48.94" x2="20.84" y2="49.52"/>
	<line class="st0" x1="24.49" y1="36.3" x2="24.49" y2="36.3"/>
	<path class="st0" d="M37.29,35.64c0,2.44-1.98,4.42-4.42,4.42s-4.42-1.98-4.42-4.42c0-2.44,1.98-4.42,4.42-4.42
		S37.29,33.2,37.29,35.64z"/>
	<path class="st0" d="M30.55,26.62c0,1.02-0.83,1.85-1.85,1.85c-1.02,0-1.85-0.83-1.85-1.85c0-1.02,0.83-1.85,1.85-1.85
		C29.72,24.77,30.55,25.6,30.55,26.62z"/>
	<circle class="st0" cx="25.93" cy="43.68" r="0.92"/>
	<path class="st0" d="M40.87,41.37c0,0.33-0.27,0.6-0.6,0.6c-0.33,0-0.6-0.27-0.6-0.6c0-0.33,0.27-0.6,0.6-0.6
		C40.6,40.77,40.87,41.04,40.87,41.37z"/>
	<path class="st0" d="M35.77,24.39c0,0.33-0.27,0.6-0.6,0.6c-0.33,0-0.6-0.27-0.6-0.6c0-0.33,0.27-0.6,0.6-0.6
		C35.5,23.79,35.77,24.06,35.77,24.39z"/>
	<path class="st0" d="M15.94,19.39h2.03c1.69,0,3.16-1.16,3.55-2.8l0.58-2.41"/>
	<path class="st0" d="M52.9,38.41l-1.8,0.83c-1.02,0.47-1.55,1.61-1.27,2.69l0.46,1.75"/>
</g>
</svg>
