<?xml version="1.0" encoding="utf-8"?>
<!-- Generator: Adobe Illustrator 25.4.1, SVG Export Plug-In . SVG Version: 6.00 Build 0)  -->
<svg version="1.1" id="Layer_1" xmlns="http://www.w3.org/2000/svg" xmlns:xlink="http://www.w3.org/1999/xlink" x="0px" y="0px"
	 viewBox="0 0 64 64" style="enable-background:new 0 0 64 64;" xml:space="preserve">
<style type="text/css">
	.st0{fill:none;stroke:#231F20;stroke-width:2;stroke-linecap:round;stroke-linejoin:round;stroke-miterlimit:10;}
</style>
<g>
	<path class="st0" d="M50.61,21.95c0,0.59-0.03,1.18-0.08,1.76c-2.21-0.62-5.22-0.67-9,0.94c-9.04,3.86-13.04-4.48-20.82-0.46
		c-2.79,1.44-5.11,1.76-6.92,1.57c-0.25-1.23-0.39-2.51-0.39-3.81c0-10.28,8.33-18.61,18.61-18.61S50.61,11.67,50.61,21.95z"/>
	<path class="st0" d="M24.74,15.13c-1.28,1.28-3.13,1.51-4.13,0.51c-1-1-0.77-2.85,0.51-4.13c1.28-1.28,3.13-1.51,4.13-0.51
		C26.25,12,26.02,13.85,24.74,15.13z"/>
	<line class="st0" x1="26.99" y1="8.42" x2="27.61" y2="8.14"/>
	<line class="st0" x1="28.7" y1="11.32" x2="28.94" y2="11.56"/>
	<path class="st0" d="M17.24,25.49c0,0-1.23,7.26,2.56,11.72c3.79,4.46-5.35,7.36-2.01,12.26c4.57,6.69,1.13,10.31,1.13,10.31"/>
	<path class="st0" d="M22.92,23.33c0,0-2.9,7.53,1.26,11.32c4.16,3.79-3.2,7.65,0,11.3c3.2,3.64,0.74,7.13,0.74,7.13"/>
	<path class="st0" d="M26.99,23.26c0,0,5.3,7.38,3.21,11.91c-2.08,4.53-2.45,6.99,0.48,9.55c2.93,2.56-3.24,6.2-0.34,9.47
		c2.9,3.27-1.54,6.47-1.54,6.47"/>
	<path class="st0" d="M35.42,25.62c0,0-1.72,6.43,1.85,11.63c2.79,4.07-2.75,8.23,0.26,11.78c5.02,5.91-0.95,10.09-0.95,10.09"/>
	<path class="st0" d="M41.53,24.65c0,0-2.16,9.05,2.08,12.4c4.24,3.34-3.88,6.86,0,10.2c4.4,3.79-1.39,6.86,2.84,11.26"/>
	<path class="st0" d="M46.16,23.38c0,0-2.28,7.7,1.29,10.48c3.57,2.79-0.45,7.72,1.78,10.85c2.23,3.14,0.33,7.82,0.33,7.82"/>
</g>
</svg>
