<?xml version="1.0" encoding="utf-8"?>
<!-- Generator: Adobe Illustrator 25.4.1, SVG Export Plug-In . SVG Version: 6.00 Build 0)  -->
<svg version="1.1" id="Layer_1" xmlns="http://www.w3.org/2000/svg" xmlns:xlink="http://www.w3.org/1999/xlink" x="0px" y="0px"
	 viewBox="0 0 64 64" style="enable-background:new 0 0 64 64;" xml:space="preserve">
<style type="text/css">
	.st0{fill:none;stroke:#231F20;stroke-width:2;stroke-linecap:round;stroke-linejoin:round;stroke-miterlimit:10;}
</style>
<g>
	<path class="st0" d="M5.41,47.04c0,0,4.81-7.18,13.73-1.43c5.91,3.81,6.23-2.94,13.55-2.95c6.71-0.01,5.51,5.24,14.55,4.26
		c5.03-0.54,3.83-4.27,11.35-4.27"/>
	<path class="st0" d="M5.41,52.95c0,0,4.81-7.18,13.73-1.43c5.91,3.81,6.23-2.94,13.55-2.95c6.71-0.01,5.51,5.24,14.55,4.26
		c5.03-0.54,3.83-4.27,11.35-4.27"/>
	<path class="st0" d="M53.78,43.47c0,0-2.46-8.88-12.13-9.32c-13.2-0.6-13.84,9.77-13.84,9.77"/>
	<path class="st0" d="M41.41,34.13c0,0-3.08-14.84-13.6-22.93c0,0,4.4-4.97,12.32,0"/>
	<path class="st0" d="M33.22,35.78c-0.96-13.49-8.28-22.39-8.28-22.39s-6.78-3.17-9.67,6.99"/>
	<path class="st0" d="M20.47,10.21c0,0-7.06-2.06-10.29,5.26"/>
	<path class="st0" d="M16.8,5.69c0,0,4.32-0.67,6.36,2.46"/>
	<path class="st0" d="M34.23,4.76c0,0-5.28-1.46-8.32,4.24"/>
	<path class="st0" d="M13.78,43.47c0,0,5.69-10.49,16.5-5.3"/>
	<path class="st0" d="M5.41,59.41c0,0,4.81-7.18,13.73-1.43c5.91,3.81,6.23-2.94,13.55-2.95c6.71-0.01,5.51,5.24,14.55,4.26
		c5.03-0.54,3.83-4.27,11.35-4.27"/>
</g>
</svg>
