<?xml version="1.0" encoding="utf-8"?>
<!-- Generator: Adobe Illustrator 25.4.1, SVG Export Plug-In . SVG Version: 6.00 Build 0)  -->
<svg version="1.1" id="Layer_1" xmlns="http://www.w3.org/2000/svg" xmlns:xlink="http://www.w3.org/1999/xlink" x="0px" y="0px"
	 viewBox="0 0 64 64" style="enable-background:new 0 0 64 64;" xml:space="preserve">
<style type="text/css">
	.st0{fill:none;stroke:#231F20;stroke-width:2;stroke-linecap:round;stroke-linejoin:round;stroke-miterlimit:10;}
</style>
<g>
	<path class="st0" d="M8.99,47.01c0,0,4.76-6.39,13.2-1.81c8.44,4.58,12.68,1.56,14.85,0.08c2.84-1.94,6.91-4.14,12.66-0.14
		c4.12,2.86,7.75,2.71,9.98-0.14"/>
	<path class="st0" d="M15.24,43.64c0,0-3.37-5.07-1.91-14.65s9.58-18.44,22.81-18.44c13.96,0,15.63,9.79,11.88,11.56
		c-3.75,1.77-6.04-1.98-6.04-1.98s-0.87,6.53-7.12,2.27c0,0-1.62,6.89-7.39,1.27c0,0,0.1,9.15-6.85,2.49c0,0-0.68,6.98-7.23,2.51"/>
	<path class="st0" d="M40.67,22.95c0,0-5.93,9.2,1.49,20.05"/>
	<path class="st0" d="M8.99,52.88c0,0,4.76-6.39,13.2-1.81c8.44,4.58,12.68,1.56,14.85,0.08c2.84-1.94,6.91-4.14,12.66-0.14
		c4.12,2.86,7.75,2.71,9.98-0.14"/>
	<path class="st0" d="M8.99,52.88c0,0,4.76-6.39,13.2-1.81c8.44,4.58,12.68,1.56,14.85,0.08c2.84-1.94,6.91-4.14,12.66-0.14
		c4.12,2.86,7.75,2.71,9.98-0.14"/>
	<path class="st0" d="M11.63,13.53c0-1.1,0.89-1.99,1.99-1.99c1.1,0,1.99,0.89,1.99,1.99c0,1.1-0.89,1.99-1.99,1.99
		C12.52,15.52,11.63,14.63,11.63,13.53z"/>
	<path class="st0" d="M43.69,30.39c-0.6-0.6-0.6-1.58,0-2.18c0.6-0.6,1.58-0.6,2.18,0c0.6,0.6,0.6,1.58,0,2.18
		C45.26,30.99,44.29,30.99,43.69,30.39z"/>
	<line class="st0" x1="6.8" y1="23.85" x2="7.04" y2="28.74"/>
	<line class="st0" x1="9.37" y1="26.17" x2="4.47" y2="26.42"/>
	<line class="st0" x1="42.09" y1="4.26" x2="42.24" y2="7.23"/>
	<line class="st0" x1="43.64" y1="5.67" x2="40.68" y2="5.82"/>
	<line class="st0" x1="52.97" y1="22.23" x2="55.57" y2="23.68"/>
	<line class="st0" x1="54.99" y1="21.66" x2="53.54" y2="24.25"/>
	<path class="st0" d="M22.31,27.6c0,0-3.61,9.38,1.68,18.5"/>
	<path class="st0" d="M28.99,24.95c0,0-4.71,11.32,2.64,22.61"/>
	<path class="st0" d="M35.72,22.95c0,0-6.12,9.44,1.31,22.33"/>
	<path class="st0" d="M8.99,59.11c0,0,4.76-6.39,13.2-1.81c8.44,4.58,12.68,1.56,14.85,0.08c2.84-1.94,6.91-4.14,12.66-0.14
		c4.12,2.86,7.75,2.71,9.98-0.14"/>
</g>
</svg>
