<?xml version="1.0" encoding="utf-8"?>
<!-- Generator: Adobe Illustrator 25.4.1, SVG Export Plug-In . SVG Version: 6.00 Build 0)  -->
<svg version="1.1" id="Layer_1" xmlns="http://www.w3.org/2000/svg" xmlns:xlink="http://www.w3.org/1999/xlink" x="0px" y="0px"
	 viewBox="0 0 64 64" style="enable-background:new 0 0 64 64;" xml:space="preserve">
<style type="text/css">
	.st0{fill:none;stroke:#231F20;stroke-width:2;stroke-linecap:round;stroke-linejoin:round;stroke-miterlimit:10;}
</style>
<g>
	<path class="st0" d="M56.96,41.18l-2.78-1.85c-2.31,19.2-22.17,21.26-22.17,21.26S12.13,58.53,9.82,39.33l-2.78,1.85l4.98-11.78
		l5.19,10.52l-3.12-0.93c0,0,2.67,12.95,14.84,14.14l-0.15-25.91l-8.62-0.11v-4.72h8.62v-6.54c-2.05-1.13-3.43-3.31-3.43-5.81
		c0-3.65,2.98-6.63,6.63-6.63c3.67,0,6.63,2.98,6.63,6.63c0,2.5-1.38,4.68-3.41,5.81v6.54h8.62v4.72l-8.62,0.11l-0.15,25.91
		C47.25,51.94,49.9,38.99,49.9,38.99l-3.12,0.93l5.19-10.52L56.96,41.18z"/>
	<ellipse transform="matrix(0.2669 -0.9637 0.9637 0.2669 13.8234 38.1677)" class="st0" cx="32" cy="10" rx="2.49" ry="2.49"/>
</g>
</svg>
