<?xml version="1.0" encoding="utf-8"?>
<!-- Generator: Adobe Illustrator 25.4.1, SVG Export Plug-In . SVG Version: 6.00 Build 0)  -->
<svg version="1.1" id="Layer_1" xmlns="http://www.w3.org/2000/svg" xmlns:xlink="http://www.w3.org/1999/xlink" x="0px" y="0px"
	 viewBox="0 0 64 64" style="enable-background:new 0 0 64 64;" xml:space="preserve">
<style type="text/css">
	.st0{fill:none;stroke:#231F20;stroke-width:2;stroke-linecap:round;stroke-linejoin:round;stroke-miterlimit:10;}
</style>
<g>
	<path class="st0" d="M12.95,26.77c7.34-9.19,17.07-0.36,25.29,6.61c8.22,6.97,9.39,12.3,2.14,19.69
		c-5.46,5.57-13.79,5.71-13.79,5.71s11.52-2.81,10.41-12.11c-1.04-8.74-12.46-10.23-18.02,2.01c-3.65,8.05-11.37,5-11.37,5
		s4.52-2.33,4.41-10.22C11.93,35.95,8.93,32.59,12.95,26.77z"/>
	<path class="st0" d="M26.6,58.79c0,0-10.76,0.46-18.98-5.1"/>
	<path class="st0" d="M21.57,22.92c0,0-1.65-4.91,4.59-7.87c6.24-2.96,15.49,13.42,23.78,15.25c0,0,4.56,6.53-5.4,10.66"/>
	<path class="st0" d="M30.32,15.26c0,0,2.67-7.31,7.01-6.34c5.81,1.3,9.56,12.12,16.45,12.79c0,0,1.03,5.57-3.84,8.59"/>
	<path class="st0" d="M39.95,10.09c0,0,0.31-5.25,6.07-2.63c3.86,1.76,5.37,7.45,9.4,7.57c0,0,1.65,4.48-1.64,6.68"/>
	<path class="st0" d="M55.41,15.03c0,0,2.1-5.43,0.11-8.64c-1.99-3.21-9.5,1.07-9.5,1.07"/>
	<path class="st0" d="M28.73,17.74c0,0-2.21,0.09-3.38,2.89"/>
	<path class="st0" d="M37.82,11.88c0,0-1.69-1.01-3.38,2.68"/>
	<path class="st0" d="M22.96,26.26c0,0-6.33-2.22-8.09,5.32"/>
</g>
</svg>
