<?xml version="1.0" encoding="utf-8"?>
<!-- Generator: Adobe Illustrator 25.4.1, SVG Export Plug-In . SVG Version: 6.00 Build 0)  -->
<svg version="1.1" id="Layer_1" xmlns="http://www.w3.org/2000/svg" xmlns:xlink="http://www.w3.org/1999/xlink" x="0px" y="0px"
	 viewBox="0 0 64 64" style="enable-background:new 0 0 64 64;" xml:space="preserve">
<style type="text/css">
	.st0{fill:none;stroke:#231F20;stroke-width:2;stroke-linecap:round;stroke-linejoin:round;stroke-miterlimit:10;}
</style>
<g>
	<path class="st0" d="M25.27,42.55c0.85,4.51-0.71,8.58-3.48,9.1c-2.77,0.52-5.33-2.53-6.18-7.04c-0.85-4.51,0.76-8.55,3.5-9.21
		C22.04,34.69,24.43,38.05,25.27,42.55z"/>
	<path class="st0" d="M22.5,56.1c0,0-6.6,2.47-10.27-9.68C7.98,32.3,5.02,26.1,3.65,20.66c-1.65-6.56-0.45-9.72,4.48-8.86
		c8.44,1.47,8.68-0.22,13.27-3.08c4.94-3.09,6.42,0.97,6.72,9.53c0.35,10.06,0.58,13.55,0.78,25.44
		C29.06,53.04,26.18,55.24,22.5,56.1z"/>
	<path class="st0" d="M7.48,17.58c1.2,6.47,2.93,11.32,2.93,11.32"/>
	<path class="st0" d="M23.94,14.58c0,0,0.45,4.99,0.33,12.03"/>
	<line class="st0" x1="15.94" y1="16.48" x2="17.32" y2="25.55"/>
	<g>
		<path class="st0" d="M48.03,43.96c-0.79,4.52-3.69,7.78-6.46,7.3c-2.78-0.49-4.1-4.25-3.31-8.76c0.79-4.52,3.72-7.73,6.52-7.39
			C47.76,35.47,48.82,39.45,48.03,43.96z"/>
		<path class="st0" d="M40.67,55.67c0,0-7.04-0.01-6.2-12.68c0.98-14.71,0.39-21.55,1.03-27.13c0.76-6.72,3-9.26,7.31-6.72
			c7.38,4.34,8.2,2.85,13.51,1.78c5.71-1.15,5.67,3.17,2.93,11.29c-3.21,9.54-4.23,12.89-8.22,24.09
			C47.89,55.12,44.41,56.16,40.67,55.67z"/>
		<path class="st0" d="M40.16,14.33c-1.15,6.48-1.24,11.63-1.24,11.63"/>
		<path class="st0" d="M56.62,17.31c0,0-1.33,4.84-3.92,11.38"/>
		<line class="st0" x1="48.46" y1="16.27" x2="46.57" y2="25.25"/>
	</g>
</g>
</svg>
