<?xml version="1.0" encoding="utf-8"?>
<!-- Generator: Adobe Illustrator 25.4.1, SVG Export Plug-In . SVG Version: 6.00 Build 0)  -->
<svg version="1.1" id="Layer_1" xmlns="http://www.w3.org/2000/svg" xmlns:xlink="http://www.w3.org/1999/xlink" x="0px" y="0px"
	 viewBox="0 0 64 64" style="enable-background:new 0 0 64 64;" xml:space="preserve">
<style type="text/css">
	.st0{fill:none;stroke:#231F20;stroke-width:2;stroke-linecap:round;stroke-linejoin:round;stroke-miterlimit:10;}
</style>
<g>
	<line class="st0" x1="4.81" y1="59.59" x2="56.97" y2="59.59"/>
	<path class="st0" d="M21.28,59.59c0,0-3.72-10.66,2.53-17.43c6.24-6.76,2.6-14.19-3.2-19.91c-5.8-5.72,0.22-13.23,4.61-14.12
		c0,0-4.12,6.32,3.05,11.96c10.11,7.95,9.52,18.17,4.46,24.89c-6.76,8.99-0.59,14.6-0.59,14.6"/>
	<path class="st0" d="M25.63,59.59c0,0-3.75-6.95,3.23-16.76s0.59-15.08,0.59-15.08"/>
	<path class="st0" d="M40.38,59.59c0,0-4.33-8.86,3.7-14.99c8.03-6.13-5.24-11.76-2.17-19.67c3.07-7.91,7.84-14.21,1.05-20.51
		c0,0,2.96,5.07-3.23,10.64c-6.19,5.57-6.95,6.53-7.01,9.51"/>
	<path class="st0" d="M36.28,59.59c0,0-4.96-6.2,2.62-16.24c4.57-6.05-1.88-8.02-2.85-11.35"/>
	<path class="st0" d="M51.38,59.59c0,0-2.6-6.28,3.57-13.19c6.17-6.91-3.02-12.41-3.05-18.65c-0.03-6.24,4.17-9.47,7.29-10.25
		c0,0-14.13-4.61-17.67,8.81"/>
	<path class="st0" d="M45.58,59.59c0,0-2.88-7.37,2.97-12.97c8.84-8.46-3.72-11.21-1.49-20.58"/>
	<path class="st0" d="M9.41,59.59c0,0-1.56-9.75,2.23-15.44c3.79-5.68,3.85-9.16,0.32-11.91c-3.53-2.75-3.75-8.99,1.63-11.41
		c0,0-2.34,3.98,1.89,6.91c3.73,2.59,10.14,5.37,5.57,15.46c-2.7,5.96-0.5,13.42-0.5,13.42"/>
	<path class="st0" d="M15.04,59.59c0,0-3.79-7.29,1.34-15.55c4.01-6.46,1.04-9.72,1.04-9.72"/>
	<path class="st0" d="M33.69,14.29c0,1.11-0.9,2.01-2.01,2.01s-2.01-0.9-2.01-2.01c0-1.11,0.9-2.01,2.01-2.01
		S33.69,13.18,33.69,14.29z"/>
	<circle class="st0" cx="8.37" cy="37.24" r="2.01"/>
	<path class="st0" d="M58.98,26.16c0,1.11-0.9,2.01-2.01,2.01s-2.01-0.9-2.01-2.01c0-1.11,0.9-2.01,2.01-2.01
		S58.98,25.05,58.98,26.16z"/>
</g>
</svg>
