<?xml version="1.0" encoding="utf-8"?>
<!-- Generator: Adobe Illustrator 25.4.1, SVG Export Plug-In . SVG Version: 6.00 Build 0)  -->
<svg version="1.1" id="Layer_1" xmlns="http://www.w3.org/2000/svg" xmlns:xlink="http://www.w3.org/1999/xlink" x="0px" y="0px"
	 viewBox="0 0 64 64" style="enable-background:new 0 0 64 64;" xml:space="preserve">
<style type="text/css">
	.st0{fill:none;stroke:#231F20;stroke-width:2;stroke-linecap:round;stroke-linejoin:round;stroke-miterlimit:10;}
</style>
<g>
	<path class="st0" d="M6.12,25.54c0,0,2.16-1.34,3.51,1.34c1.34,2.69-2.3,10.1,5.78,14.23c4.23,2.16,10.51-1.94,13.75-6.56"/>
	<path class="st0" d="M28.84,40.99c-1.71,1.44-4.87,6.08-9.79,6.16c0,0-4.72,0.43-9.08-4.16c-2.86-3-4.44-1.16-4.07,0.52"/>
	<path class="st0" d="M51.22,19.79c-3.36-1.34-6.83,0.95-3.86,5.76c2.97,4.81,1.9,9.9-2.85,10.63c-4.76,0.73-7.05-4.31-7.05-4.31
		h0.01c-1.02-2.34-0.43-5.14,0.11-6.81c0.24-0.75,0.6-1.45,1.12-2.04c1.34-1.54,2.15-3.55,2.15-5.77c0-5.46-4.95-9.77-10.62-8.67
		c-3.48,0.67-6.27,3.49-6.91,6.97c-0.52,2.83,0.3,5.49,1.94,7.42c0.51,0.6,0.89,1.3,1.14,2.05c0.55,1.67,1.16,4.49,0.14,6.84
		c0,0-2.29,5.03-7.05,4.31c-4.76-0.73-5.82-5.82-2.85-10.63c2.97-4.81-0.5-7.1-3.86-5.76"/>
	<path class="st0" d="M57.88,25.54c0,0-2.16-1.34-3.51,1.34c-1.34,2.69,2.3,10.1-5.78,14.23c-4.2,2.14-10.43-1.92-13.68-6.47"/>
	<path class="st0" d="M35.04,40.88c1.67,1.45,4.87,6.18,9.92,6.27c0,0,4.72,0.43,9.08-4.16c2.86-3,4.44-1.16,4.07,0.52"/>
	<path class="st0" d="M24.39,7.63c0,0,0.71-1.19,2.35-1.56"/>
	<path class="st0" d="M39.44,7.63c0,0-0.71-1.19-2.35-1.56"/>
	<path class="st0" d="M53.84,54.16c1.27-1.04,0.47-2.57,0.47-2.57c-1.23-2.16-2.1,0.46-9.03,0.65C34.54,52.54,32,43.4,32,43.4
		s-2.54,9.15-13.28,8.84c-6.93-0.19-7.79-2.82-9.03-0.65c0,0-0.8,1.53,0.47,2.57"/>
</g>
</svg>
