<?xml version="1.0" encoding="utf-8"?>
<!-- Generator: Adobe Illustrator 25.4.1, SVG Export Plug-In . SVG Version: 6.00 Build 0)  -->
<svg version="1.1" id="Layer_1" xmlns="http://www.w3.org/2000/svg" xmlns:xlink="http://www.w3.org/1999/xlink" x="0px" y="0px"
	 viewBox="0 0 64 64" style="enable-background:new 0 0 64 64;" xml:space="preserve">
<style type="text/css">
	.st0{fill:none;stroke:#231F20;stroke-width:2;stroke-linecap:round;stroke-linejoin:round;stroke-miterlimit:10;}
</style>
<g>
	<g>
		<path class="st0" d="M3.79,35.11l14,2.36l43.91-1.22v-6.35L53,23.71h-6.26l-5.05,6.26L27.1,30.07l-13.65-4.65L3.14,31.85
			C1.76,32.72,2.18,34.84,3.79,35.11z"/>
		<path class="st0" d="M5.83,35.45l5.99,5.97c1.59,1.58,3.76,2.43,6,2.35l36.05,0.01c3.85-0.14,7.06-2.96,7.7-6.76l0.13-0.78"/>
		<path class="st0" d="M13.45,25.41l8.35-4.91c0.71-0.41,1.59-0.38,2.26,0.09l0.62,0.43c0.95,0.67,1.17,1.98,0.49,2.92l-3.15,4.38"
			/>
		<line class="st0" x1="24.94" y1="24.28" x2="29.24" y2="25.68"/>
		<line class="st0" x1="27.1" y1="30.07" x2="42.57" y2="36.77"/>
	</g>
	<line class="st0" x1="51.53" y1="28.21" x2="57.04" y2="31.93"/>
</g>
</svg>
