<?xml version="1.0" encoding="utf-8"?>
<!-- Generator: Adobe Illustrator 25.4.1, SVG Export Plug-In . SVG Version: 6.00 Build 0)  -->
<svg version="1.1" id="Layer_1" xmlns="http://www.w3.org/2000/svg" xmlns:xlink="http://www.w3.org/1999/xlink" x="0px" y="0px"
	 viewBox="0 0 64 64" style="enable-background:new 0 0 64 64;" xml:space="preserve">
<style type="text/css">
	.st0{fill:none;stroke:#231F20;stroke-width:2;stroke-linecap:round;stroke-linejoin:round;stroke-miterlimit:10;}
</style>
<g>
	<path class="st0" d="M36.68,60.43c0,0-2.65-11.86,9.1-18.04c3.48-1.83,7.84-1.8,10.02-1.64c0.86,0.06,1.68-0.36,2.13-1.1l0.29-0.47
		c0.88-1.45-0.06-3.33-1.75-3.47c-3.03-0.26-7.56-0.26-11.71,1.3c0,0,2.93-5.43,9.64-8.78c5.5-2.75,6.06-8.22,5.89-11.27
		c-0.07-1.22-1.07-2.19-2.29-2.19h-1.42c-1.24,0-2.27,0.98-2.29,2.22c-0.05,2.49-1.03,6.43-6.28,8.43c0,0-0.05-3.63-2.37-6.22
		c-0.67-0.74-1.74-0.97-2.66-0.56l-0.36,0.16c-1.21,0.54-1.71,1.99-1.09,3.15c1.52,2.87,2.9,8.44-3.95,14.58
		c-5.25,4.71-8.52,9.91-8.52,9.91s-4.22,6.96-2.8,13.99"/>
	<path class="st0" d="M35.95,38.07c0,0-10.52-7.39-5.76-15.2c4.47-7.34,4.57-14.49-2.48-18.95c-0.83-0.53-1.92-0.44-2.68,0.19
		l-0.65,0.54c-1.18,0.98-1.06,2.78,0.19,3.67c2.19,1.58,4.41,4.66,1.69,10.22c-4.52,9.23-3.74,14.27-1.39,17.61
		c0,0-9.09-3.05-7.17-9.8c1.09-3.83,0.35-6.17-0.5-7.48c-0.58-0.9-1.72-1.26-2.73-0.88l-0.86,0.32c-1.21,0.46-1.84,1.84-1.31,3.03
		c0.72,1.61,1.22,4.15-0.14,7.49c-2.49,6.11,2.23,9.38,7.24,12c6.11,3.2,3.49,5.57,0.92,10.4c0,0-1.97,3.37-0.93,9.2"/>
	<path class="st0" d="M12.02,60.43c0,0,2.27-6.82-2.63-9.52c-4.54-2.5-6.94-5.85-5.08-10.9c0.27-0.74,1.02-1.2,1.8-1.12l0.74,0.08
		c1.03,0.1,1.75,1.09,1.5,2.09c-0.48,1.94-0.51,4.85,3.12,5.94c5.66,1.7,10.63-2.98,6.25-7.1"/>
	<path class="st0" d="M43.57,60.43c0,0-3.18-6.04,6.9-7.67c3.65-0.59,4.74-4.6,4.93-6.36c0.13-1.19-0.8-2.24-2-2.24h-0.65
		c-0.96,0-1.77,0.69-1.97,1.63c-0.25,1.13-1.02,2.95-4.73,3.48c-7.26,1.04-9.36,3.48-9.61,7.45"/>
	<circle class="st0" cx="35.78" cy="27.23" r="2.22"/>
	<line class="st0" x1="6" y1="32" x2="6.51" y2="32"/>
	<line class="st0" x1="21.52" y1="15.2" x2="22.03" y2="15.2"/>
	<line class="st0" x1="58.63" y1="31.25" x2="59.14" y2="31.25"/>
</g>
</svg>
