<?xml version="1.0" encoding="utf-8"?>
<!-- Generator: Adobe Illustrator 25.4.1, SVG Export Plug-In . SVG Version: 6.00 Build 0)  -->
<svg version="1.1" id="Layer_1" xmlns="http://www.w3.org/2000/svg" xmlns:xlink="http://www.w3.org/1999/xlink" x="0px" y="0px"
	 viewBox="0 0 64 64" style="enable-background:new 0 0 64 64;" xml:space="preserve">
<style type="text/css">
	.st0{fill:none;stroke:#231F20;stroke-width:2;stroke-linecap:round;stroke-linejoin:round;stroke-miterlimit:10;}
</style>
<g>
	<ellipse class="st0" cx="32" cy="38.23" rx="18.33" ry="14.22"/>
	<path class="st0" d="M21.68,26.48c-0.15-0.39-0.23-0.8-0.23-1.24c0-1.91,1.55-3.46,3.47-3.46c1.59,0,2.93,1.07,3.33,2.53"/>
	<path class="st0" d="M35.98,24.35c0.39-1.48,1.74-2.57,3.35-2.57c1.91,0,3.46,1.55,3.46,3.46c0,0.48-0.1,0.94-0.27,1.35"/>
	<path class="st0" d="M16.51,30.62c0,0,0.87-3.05-3.44-4.15l-3.52,1.71c0,0,1.47,5.3,4.94,5.81"/>
	<path class="st0" d="M13.08,26.48c0,0,1.5-4.36-0.59-6.71l-4.24,0.39c0,0-1.5,6.65,1.3,8.02"/>
	<path class="st0" d="M8.25,20.17c0,0-3.42-3.55-2.05-8.35c1.47-5.15,6.73-8.01,14.37-6.28l-5.31,5.7"/>
	<path class="st0" d="M18.09,8.19c0,0,7.11,7.7-5.6,11.58"/>
	<path class="st0" d="M47.49,30.62c0,0-0.87-3.05,3.44-4.15l3.52,1.71c0,0-1.47,5.3-4.94,5.81"/>
	<path class="st0" d="M50.92,26.48c0,0-1.5-4.36,0.59-6.71l4.24,0.39c0,0,1.5,6.65-1.3,8.02"/>
	<path class="st0" d="M55.75,20.17c0,0,3.42-3.55,2.05-8.35c-1.47-5.15-6.73-8.01-14.37-6.28l5.31,5.7"/>
	<path class="st0" d="M45.91,8.19c0,0-7.11,7.7,5.6,11.58"/>
	<polyline class="st0" points="21.08,49.65 15.16,51.99 18.12,58.97 	"/>
	<polyline class="st0" points="17.33,46.76 12.49,48.6 9.56,54.93 	"/>
	<polyline class="st0" points="14.55,42.58 9.29,43.95 6,49.31 	"/>
	<polyline class="st0" points="42.9,49.65 48.83,51.99 45.86,58.97 	"/>
	<polyline class="st0" points="46.66,46.76 51.5,48.6 54.43,54.93 	"/>
	<polyline class="st0" points="49.44,42.58 54.7,43.95 57.99,49.31 	"/>
	<path class="st0" d="M41.97,30.24c0,0,4.22,1.63,4.69,7.03c0.46,5.32-2.73,7.03-2.73,7.03"/>
</g>
</svg>
